<svg width="80" height="79" xmlns="http://www.w3.org/2000/svg">

 <title/>
 <g>
  <title>background</title>
  <rect fill="none" id="canvas_background" height="81" width="82" y="-1" x="-1"/>
 </g>
 <g>
  <title>Layer 1</title>
  <path stroke="null" id="svg_2" d="m39.999999,77.618498l0,0c-21.049035,0 -38.118499,-17.069464 -38.118499,-38.118499l0,0c0,-21.049035 17.069464,-38.118499 38.118499,-38.118499l0,0c21.049035,0 38.118499,17.069464 38.118499,38.118499l0,0c0,21.049035 -17.069464,38.118499 -38.118499,38.118499z"/>
  <path stroke="null" fill="#ffffff" id="svg_3" d="m60.086296,29.343226c-0.479748,-1.817993 -1.900055,-3.244613 -3.705423,-3.730673c-3.269862,-0.883747 -16.374562,-0.883747 -16.374562,-0.883747s-13.111012,0 -16.374562,0.883747c-1.805368,0.486061 -3.225675,1.91268 -3.705423,3.730673c-0.883747,3.2888 -0.883747,10.156773 -0.883747,10.156773s0,6.867974 0.877434,10.156773c0.479748,1.817993 1.900055,3.244613 3.705423,3.730673c3.269862,0.883747 16.374562,0.883747 16.374562,0.883747s13.111012,0 16.374562,-0.883747c1.805368,-0.486061 3.225675,-1.91268 3.705423,-3.730673c0.877434,-3.2888 0.877434,-10.156773 0.877434,-10.156773s0,-6.867974 -0.871122,-10.156773zm-24.372469,16.387187l0,-12.460827l10.952145,6.230413l-10.952145,6.230413z" class="st0"/>
 </g>
</svg>